<mxfile host="Electron" agent="Mozilla/5.0 (Windows NT 10.0; Win64; x64) AppleWebKit/537.36 (KHTML, like Gecko) draw.io/24.7.8 Chrome/128.0.6613.36 Electron/32.0.1 Safari/537.36" version="24.7.8" pages="2">
  <diagram name="Страница — 1" id="c6C0CqHAVo9lY1f9Qh6C">
    <mxGraphModel dx="625" dy="1738" grid="0" gridSize="10" guides="1" tooltips="1" connect="1" arrows="1" fold="1" page="1" pageScale="1" pageWidth="827" pageHeight="1169" math="0" shadow="0">
      <root>
        <mxCell id="0" />
        <mxCell id="1" parent="0" />
        <mxCell id="4OQGztQtT3kv9VkyA6dM-9" style="rounded=0;orthogonalLoop=1;jettySize=auto;html=1;exitX=1;exitY=0.5;exitDx=0;exitDy=0;entryX=0;entryY=0.5;entryDx=0;entryDy=0;" edge="1" parent="1" source="4OQGztQtT3kv9VkyA6dM-1" target="4OQGztQtT3kv9VkyA6dM-2">
          <mxGeometry relative="1" as="geometry" />
        </mxCell>
        <mxCell id="4OQGztQtT3kv9VkyA6dM-20" value="8" style="edgeLabel;html=1;align=center;verticalAlign=middle;resizable=0;points=[];fontFamily=Helvetica;fontSize=15;fontColor=default;labelBackgroundColor=default;" vertex="1" connectable="0" parent="4OQGztQtT3kv9VkyA6dM-9">
          <mxGeometry x="-0.025" y="2" relative="1" as="geometry">
            <mxPoint x="-3" y="-10" as="offset" />
          </mxGeometry>
        </mxCell>
        <mxCell id="4OQGztQtT3kv9VkyA6dM-10" style="rounded=0;orthogonalLoop=1;jettySize=auto;html=1;exitX=1;exitY=0.5;exitDx=0;exitDy=0;entryX=0;entryY=0.5;entryDx=0;entryDy=0;" edge="1" parent="1" source="4OQGztQtT3kv9VkyA6dM-1" target="4OQGztQtT3kv9VkyA6dM-3">
          <mxGeometry relative="1" as="geometry" />
        </mxCell>
        <mxCell id="4OQGztQtT3kv9VkyA6dM-12" style="edgeStyle=none;shape=connector;rounded=0;orthogonalLoop=1;jettySize=auto;html=1;exitX=1;exitY=0.5;exitDx=0;exitDy=0;entryX=0;entryY=0.5;entryDx=0;entryDy=0;strokeColor=default;align=center;verticalAlign=middle;fontFamily=Helvetica;fontSize=11;fontColor=default;labelBackgroundColor=default;endArrow=classic;" edge="1" parent="1" source="4OQGztQtT3kv9VkyA6dM-1" target="4OQGztQtT3kv9VkyA6dM-4">
          <mxGeometry relative="1" as="geometry" />
        </mxCell>
        <mxCell id="4OQGztQtT3kv9VkyA6dM-1" value="&lt;font face=&quot;Montserrat&quot; style=&quot;font-size: 15px;&quot;&gt;A&lt;/font&gt;" style="ellipse;whiteSpace=wrap;html=1;aspect=fixed;" vertex="1" parent="1">
          <mxGeometry x="40" y="400" width="40" height="40" as="geometry" />
        </mxCell>
        <mxCell id="4OQGztQtT3kv9VkyA6dM-13" style="edgeStyle=none;shape=connector;rounded=0;orthogonalLoop=1;jettySize=auto;html=1;exitX=1;exitY=0.5;exitDx=0;exitDy=0;strokeColor=default;align=center;verticalAlign=middle;fontFamily=Helvetica;fontSize=11;fontColor=default;labelBackgroundColor=default;endArrow=classic;" edge="1" parent="1" source="4OQGztQtT3kv9VkyA6dM-2" target="4OQGztQtT3kv9VkyA6dM-6">
          <mxGeometry relative="1" as="geometry" />
        </mxCell>
        <mxCell id="4OQGztQtT3kv9VkyA6dM-2" value="&lt;font face=&quot;Montserrat&quot; style=&quot;font-size: 15px;&quot;&gt;B&lt;/font&gt;&lt;span style=&quot;color: rgba(0, 0, 0, 0); font-family: monospace; font-size: 0px; text-align: start; text-wrap: nowrap;&quot;&gt;%3CmxGraphModel%3E%3Croot%3E%3CmxCell%20id%3D%220%22%2F%3E%3CmxCell%20id%3D%221%22%20parent%3D%220%22%2F%3E%3CmxCell%20id%3D%222%22%20value%3D%22%26lt%3Bfont%20face%3D%26quot%3BMontserrat%26quot%3B%20style%3D%26quot%3Bfont-size%3A%2015px%3B%26quot%3B%26gt%3B1%26lt%3B%2Ffont%26gt%3B%22%20style%3D%22ellipse%3BwhiteSpace%3Dwrap%3Bhtml%3D1%3Baspect%3Dfixed%3B%22%20vertex%3D%221%22%20parent%3D%221%22%3E%3CmxGeometry%20x%3D%2240%22%20y%3D%22320%22%20width%3D%2240%22%20height%3D%2240%22%20as%3D%22geometry%22%2F%3E%3C%2FmxCell%3E%3C%2Froot%3E%3C%2FmxGraphModel%3E&lt;/span&gt;" style="ellipse;whiteSpace=wrap;html=1;aspect=fixed;" vertex="1" parent="1">
          <mxGeometry x="160" y="320" width="40" height="40" as="geometry" />
        </mxCell>
        <mxCell id="4OQGztQtT3kv9VkyA6dM-16" style="edgeStyle=none;shape=connector;rounded=0;orthogonalLoop=1;jettySize=auto;html=1;exitX=1;exitY=0.5;exitDx=0;exitDy=0;strokeColor=default;align=center;verticalAlign=middle;fontFamily=Helvetica;fontSize=11;fontColor=default;labelBackgroundColor=default;endArrow=classic;dashed=1;" edge="1" parent="1" source="4OQGztQtT3kv9VkyA6dM-3" target="4OQGztQtT3kv9VkyA6dM-5">
          <mxGeometry relative="1" as="geometry" />
        </mxCell>
        <mxCell id="4OQGztQtT3kv9VkyA6dM-3" value="&lt;font face=&quot;Montserrat&quot;&gt;&lt;span style=&quot;font-size: 15px;&quot;&gt;C&lt;/span&gt;&lt;/font&gt;" style="ellipse;whiteSpace=wrap;html=1;aspect=fixed;" vertex="1" parent="1">
          <mxGeometry x="280" y="400" width="40" height="40" as="geometry" />
        </mxCell>
        <mxCell id="4OQGztQtT3kv9VkyA6dM-15" style="edgeStyle=none;shape=connector;rounded=0;orthogonalLoop=1;jettySize=auto;html=1;exitX=1;exitY=0.5;exitDx=0;exitDy=0;entryX=0;entryY=0.5;entryDx=0;entryDy=0;strokeColor=default;align=center;verticalAlign=middle;fontFamily=Helvetica;fontSize=11;fontColor=default;labelBackgroundColor=default;endArrow=classic;" edge="1" parent="1" source="4OQGztQtT3kv9VkyA6dM-4" target="4OQGztQtT3kv9VkyA6dM-7">
          <mxGeometry relative="1" as="geometry" />
        </mxCell>
        <mxCell id="4OQGztQtT3kv9VkyA6dM-17" style="edgeStyle=none;shape=connector;rounded=0;orthogonalLoop=1;jettySize=auto;html=1;exitX=1;exitY=0.5;exitDx=0;exitDy=0;entryX=0;entryY=0.5;entryDx=0;entryDy=0;strokeColor=default;align=center;verticalAlign=middle;fontFamily=Helvetica;fontSize=11;fontColor=default;labelBackgroundColor=default;endArrow=classic;dashed=1;" edge="1" parent="1" source="4OQGztQtT3kv9VkyA6dM-4" target="4OQGztQtT3kv9VkyA6dM-5">
          <mxGeometry relative="1" as="geometry" />
        </mxCell>
        <mxCell id="4OQGztQtT3kv9VkyA6dM-4" value="&lt;font face=&quot;Montserrat&quot;&gt;&lt;span style=&quot;font-size: 15px;&quot;&gt;D&lt;/span&gt;&lt;/font&gt;" style="ellipse;whiteSpace=wrap;html=1;aspect=fixed;" vertex="1" parent="1">
          <mxGeometry x="280" y="480" width="40" height="40" as="geometry" />
        </mxCell>
        <mxCell id="4OQGztQtT3kv9VkyA6dM-14" style="edgeStyle=none;shape=connector;rounded=0;orthogonalLoop=1;jettySize=auto;html=1;entryX=0;entryY=0.5;entryDx=0;entryDy=0;strokeColor=default;align=center;verticalAlign=middle;fontFamily=Helvetica;fontSize=11;fontColor=default;labelBackgroundColor=default;endArrow=classic;exitX=1;exitY=0.5;exitDx=0;exitDy=0;" edge="1" parent="1" source="4OQGztQtT3kv9VkyA6dM-5" target="4OQGztQtT3kv9VkyA6dM-6">
          <mxGeometry relative="1" as="geometry">
            <mxPoint x="320" y="420" as="sourcePoint" />
          </mxGeometry>
        </mxCell>
        <mxCell id="4OQGztQtT3kv9VkyA6dM-5" value="&lt;font face=&quot;Montserrat&quot;&gt;&lt;span style=&quot;font-size: 15px;&quot;&gt;E&lt;/span&gt;&lt;/font&gt;" style="ellipse;whiteSpace=wrap;html=1;aspect=fixed;" vertex="1" parent="1">
          <mxGeometry x="400" y="400" width="40" height="40" as="geometry" />
        </mxCell>
        <mxCell id="4OQGztQtT3kv9VkyA6dM-18" style="edgeStyle=none;shape=connector;rounded=0;orthogonalLoop=1;jettySize=auto;html=1;exitX=1;exitY=0.5;exitDx=0;exitDy=0;entryX=0;entryY=0.5;entryDx=0;entryDy=0;strokeColor=default;align=center;verticalAlign=middle;fontFamily=Helvetica;fontSize=11;fontColor=default;labelBackgroundColor=default;endArrow=classic;" edge="1" parent="1" source="4OQGztQtT3kv9VkyA6dM-6" target="4OQGztQtT3kv9VkyA6dM-7">
          <mxGeometry relative="1" as="geometry" />
        </mxCell>
        <mxCell id="4OQGztQtT3kv9VkyA6dM-6" value="&lt;font face=&quot;Montserrat&quot;&gt;&lt;span style=&quot;font-size: 15px;&quot;&gt;F&lt;/span&gt;&lt;/font&gt;" style="ellipse;whiteSpace=wrap;html=1;aspect=fixed;" vertex="1" parent="1">
          <mxGeometry x="520" y="320" width="40" height="40" as="geometry" />
        </mxCell>
        <mxCell id="4OQGztQtT3kv9VkyA6dM-19" style="edgeStyle=none;shape=connector;rounded=0;orthogonalLoop=1;jettySize=auto;html=1;exitX=1;exitY=0.5;exitDx=0;exitDy=0;entryX=0;entryY=0.5;entryDx=0;entryDy=0;strokeColor=default;align=center;verticalAlign=middle;fontFamily=Helvetica;fontSize=11;fontColor=default;labelBackgroundColor=default;endArrow=classic;" edge="1" parent="1" source="4OQGztQtT3kv9VkyA6dM-7" target="4OQGztQtT3kv9VkyA6dM-8">
          <mxGeometry relative="1" as="geometry" />
        </mxCell>
        <mxCell id="4OQGztQtT3kv9VkyA6dM-7" value="&lt;font face=&quot;Montserrat&quot;&gt;&lt;span style=&quot;font-size: 15px;&quot;&gt;G&lt;/span&gt;&lt;/font&gt;" style="ellipse;whiteSpace=wrap;html=1;aspect=fixed;" vertex="1" parent="1">
          <mxGeometry x="640" y="396" width="40" height="40" as="geometry" />
        </mxCell>
        <mxCell id="4OQGztQtT3kv9VkyA6dM-8" value="&lt;font face=&quot;Montserrat&quot;&gt;&lt;span style=&quot;font-size: 15px;&quot;&gt;H&lt;/span&gt;&lt;/font&gt;" style="ellipse;whiteSpace=wrap;html=1;aspect=fixed;" vertex="1" parent="1">
          <mxGeometry x="760" y="396" width="40" height="40" as="geometry" />
        </mxCell>
        <mxCell id="4OQGztQtT3kv9VkyA6dM-11" style="edgeStyle=none;shape=connector;rounded=0;orthogonalLoop=1;jettySize=auto;html=1;exitX=1;exitY=0.5;exitDx=0;exitDy=0;entryX=0;entryY=0.5;entryDx=0;entryDy=0;strokeColor=default;align=center;verticalAlign=middle;fontFamily=Helvetica;fontSize=11;fontColor=default;labelBackgroundColor=default;endArrow=classic;dashed=1;" edge="1" parent="1" source="4OQGztQtT3kv9VkyA6dM-2" target="4OQGztQtT3kv9VkyA6dM-3">
          <mxGeometry relative="1" as="geometry" />
        </mxCell>
        <mxCell id="4OQGztQtT3kv9VkyA6dM-24" value="10" style="edgeLabel;html=1;align=center;verticalAlign=middle;resizable=0;points=[];fontFamily=Helvetica;fontSize=15;fontColor=default;labelBackgroundColor=default;" vertex="1" connectable="0" parent="1">
          <mxGeometry x="174.99665940288696" y="388.0049134723667" as="geometry">
            <mxPoint x="4" y="20" as="offset" />
          </mxGeometry>
        </mxCell>
        <mxCell id="4OQGztQtT3kv9VkyA6dM-25" value="6" style="edgeLabel;html=1;align=center;verticalAlign=middle;resizable=0;points=[];fontFamily=Helvetica;fontSize=15;fontColor=default;labelBackgroundColor=none;" vertex="1" connectable="0" parent="1">
          <mxGeometry x="174.99665940288696" y="450.0049134723667" as="geometry">
            <mxPoint x="4" y="20" as="offset" />
          </mxGeometry>
        </mxCell>
        <mxCell id="4OQGztQtT3kv9VkyA6dM-26" value="8" style="edgeLabel;html=1;align=center;verticalAlign=middle;resizable=0;points=[];fontFamily=Helvetica;fontSize=15;fontColor=default;labelBackgroundColor=default;" vertex="1" connectable="0" parent="1">
          <mxGeometry x="259.99665940288696" y="379.6949134723667" as="geometry">
            <mxPoint x="114" y="-54" as="offset" />
          </mxGeometry>
        </mxCell>
        <mxCell id="4OQGztQtT3kv9VkyA6dM-27" value="9" style="edgeLabel;html=1;align=center;verticalAlign=middle;resizable=0;points=[];fontFamily=Helvetica;fontSize=15;fontColor=default;labelBackgroundColor=none;" vertex="1" connectable="0" parent="1">
          <mxGeometry x="349.99665940288696" y="436.0049134723667" as="geometry">
            <mxPoint x="114" y="-54" as="offset" />
          </mxGeometry>
        </mxCell>
        <mxCell id="4OQGztQtT3kv9VkyA6dM-28" value="14" style="edgeLabel;html=1;align=center;verticalAlign=middle;resizable=0;points=[];fontFamily=Helvetica;fontSize=15;fontColor=default;labelBackgroundColor=default;" vertex="1" connectable="0" parent="1">
          <mxGeometry x="499.99665940288696" y="420.0049134723667" as="geometry">
            <mxPoint x="114" y="-54" as="offset" />
          </mxGeometry>
        </mxCell>
        <mxCell id="4OQGztQtT3kv9VkyA6dM-29" value="6" style="edgeLabel;html=1;align=center;verticalAlign=middle;resizable=0;points=[];fontFamily=Helvetica;fontSize=15;fontColor=default;labelBackgroundColor=none;" vertex="1" connectable="0" parent="1">
          <mxGeometry x="599.996659402887" y="460.0049134723667" as="geometry">
            <mxPoint x="114" y="-54" as="offset" />
          </mxGeometry>
        </mxCell>
        <mxCell id="4OQGztQtT3kv9VkyA6dM-30" value="14" style="edgeLabel;html=1;align=center;verticalAlign=middle;resizable=0;points=[];fontFamily=Helvetica;fontSize=15;fontColor=default;labelBackgroundColor=none;" vertex="1" connectable="0" parent="1">
          <mxGeometry x="369.99665940288696" y="521.0049134723668" as="geometry">
            <mxPoint x="114" y="-54" as="offset" />
          </mxGeometry>
        </mxCell>
      </root>
    </mxGraphModel>
  </diagram>
  <diagram id="JIMvBMntD2wqHPAgXO1E" name="Страница — 2">
    <mxGraphModel dx="760" dy="392" grid="0" gridSize="10" guides="1" tooltips="1" connect="1" arrows="1" fold="1" page="1" pageScale="1" pageWidth="827" pageHeight="1169" math="0" shadow="0">
      <root>
        <mxCell id="0" />
        <mxCell id="1" parent="0" />
        <mxCell id="yzaYmvW_lgsB3hr20q7t-1" style="rounded=0;orthogonalLoop=1;jettySize=auto;html=1;exitX=1;exitY=0.5;exitDx=0;exitDy=0;entryX=0;entryY=0.5;entryDx=0;entryDy=0;" edge="1" parent="1" source="yzaYmvW_lgsB3hr20q7t-5" target="yzaYmvW_lgsB3hr20q7t-7">
          <mxGeometry relative="1" as="geometry" />
        </mxCell>
        <mxCell id="yzaYmvW_lgsB3hr20q7t-2" value="7" style="edgeLabel;html=1;align=center;verticalAlign=middle;resizable=0;points=[];fontFamily=Helvetica;fontSize=15;fontColor=default;labelBackgroundColor=default;" vertex="1" connectable="0" parent="yzaYmvW_lgsB3hr20q7t-1">
          <mxGeometry x="-0.025" y="2" relative="1" as="geometry">
            <mxPoint x="-3" y="-10" as="offset" />
          </mxGeometry>
        </mxCell>
        <mxCell id="yzaYmvW_lgsB3hr20q7t-3" style="rounded=0;orthogonalLoop=1;jettySize=auto;html=1;exitX=1;exitY=0.5;exitDx=0;exitDy=0;entryX=0;entryY=0.5;entryDx=0;entryDy=0;" edge="1" parent="1" source="yzaYmvW_lgsB3hr20q7t-5" target="yzaYmvW_lgsB3hr20q7t-9">
          <mxGeometry relative="1" as="geometry" />
        </mxCell>
        <mxCell id="yzaYmvW_lgsB3hr20q7t-4" style="edgeStyle=none;shape=connector;rounded=0;orthogonalLoop=1;jettySize=auto;html=1;exitX=1;exitY=0.5;exitDx=0;exitDy=0;entryX=0;entryY=0.5;entryDx=0;entryDy=0;strokeColor=default;align=center;verticalAlign=middle;fontFamily=Helvetica;fontSize=11;fontColor=default;labelBackgroundColor=default;endArrow=classic;" edge="1" parent="1" source="yzaYmvW_lgsB3hr20q7t-5" target="yzaYmvW_lgsB3hr20q7t-12">
          <mxGeometry relative="1" as="geometry" />
        </mxCell>
        <mxCell id="yzaYmvW_lgsB3hr20q7t-5" value="&lt;font face=&quot;Montserrat&quot; style=&quot;font-size: 15px;&quot;&gt;A&lt;/font&gt;" style="ellipse;whiteSpace=wrap;html=1;aspect=fixed;" vertex="1" parent="1">
          <mxGeometry x="40" y="400" width="40" height="40" as="geometry" />
        </mxCell>
        <mxCell id="yzaYmvW_lgsB3hr20q7t-6" style="edgeStyle=none;shape=connector;rounded=0;orthogonalLoop=1;jettySize=auto;html=1;exitX=1;exitY=0.5;exitDx=0;exitDy=0;strokeColor=default;align=center;verticalAlign=middle;fontFamily=Helvetica;fontSize=11;fontColor=default;labelBackgroundColor=default;endArrow=classic;" edge="1" parent="1" source="yzaYmvW_lgsB3hr20q7t-7" target="yzaYmvW_lgsB3hr20q7t-16">
          <mxGeometry relative="1" as="geometry" />
        </mxCell>
        <mxCell id="yzaYmvW_lgsB3hr20q7t-7" value="&lt;font face=&quot;Montserrat&quot; style=&quot;font-size: 15px;&quot;&gt;B&lt;/font&gt;&lt;span style=&quot;color: rgba(0, 0, 0, 0); font-family: monospace; font-size: 0px; text-align: start; text-wrap: nowrap;&quot;&gt;%3CmxGraphModel%3E%3Croot%3E%3CmxCell%20id%3D%220%22%2F%3E%3CmxCell%20id%3D%221%22%20parent%3D%220%22%2F%3E%3CmxCell%20id%3D%222%22%20value%3D%22%26lt%3Bfont%20face%3D%26quot%3BMontserrat%26quot%3B%20style%3D%26quot%3Bfont-size%3A%2015px%3B%26quot%3B%26gt%3B1%26lt%3B%2Ffont%26gt%3B%22%20style%3D%22ellipse%3BwhiteSpace%3Dwrap%3Bhtml%3D1%3Baspect%3Dfixed%3B%22%20vertex%3D%221%22%20parent%3D%221%22%3E%3CmxGeometry%20x%3D%2240%22%20y%3D%22320%22%20width%3D%2240%22%20height%3D%2240%22%20as%3D%22geometry%22%2F%3E%3C%2FmxCell%3E%3C%2Froot%3E%3C%2FmxGraphModel%3E&lt;/span&gt;" style="ellipse;whiteSpace=wrap;html=1;aspect=fixed;" vertex="1" parent="1">
          <mxGeometry x="160" y="320" width="40" height="40" as="geometry" />
        </mxCell>
        <mxCell id="yzaYmvW_lgsB3hr20q7t-8" style="edgeStyle=none;shape=connector;rounded=0;orthogonalLoop=1;jettySize=auto;html=1;exitX=1;exitY=0.5;exitDx=0;exitDy=0;strokeColor=default;align=center;verticalAlign=middle;fontFamily=Helvetica;fontSize=11;fontColor=default;labelBackgroundColor=default;endArrow=classic;dashed=1;" edge="1" parent="1" source="yzaYmvW_lgsB3hr20q7t-9" target="yzaYmvW_lgsB3hr20q7t-14">
          <mxGeometry relative="1" as="geometry" />
        </mxCell>
        <mxCell id="yzaYmvW_lgsB3hr20q7t-9" value="&lt;font face=&quot;Montserrat&quot;&gt;&lt;span style=&quot;font-size: 15px;&quot;&gt;C&lt;/span&gt;&lt;/font&gt;" style="ellipse;whiteSpace=wrap;html=1;aspect=fixed;" vertex="1" parent="1">
          <mxGeometry x="280" y="400" width="40" height="40" as="geometry" />
        </mxCell>
        <mxCell id="yzaYmvW_lgsB3hr20q7t-10" style="edgeStyle=none;shape=connector;rounded=0;orthogonalLoop=1;jettySize=auto;html=1;exitX=1;exitY=0.5;exitDx=0;exitDy=0;entryX=0;entryY=0.5;entryDx=0;entryDy=0;strokeColor=default;align=center;verticalAlign=middle;fontFamily=Helvetica;fontSize=11;fontColor=default;labelBackgroundColor=default;endArrow=classic;" edge="1" parent="1" source="yzaYmvW_lgsB3hr20q7t-12" target="yzaYmvW_lgsB3hr20q7t-18">
          <mxGeometry relative="1" as="geometry" />
        </mxCell>
        <mxCell id="yzaYmvW_lgsB3hr20q7t-11" style="edgeStyle=none;shape=connector;rounded=0;orthogonalLoop=1;jettySize=auto;html=1;exitX=1;exitY=0.5;exitDx=0;exitDy=0;entryX=0;entryY=0.5;entryDx=0;entryDy=0;strokeColor=default;align=center;verticalAlign=middle;fontFamily=Helvetica;fontSize=11;fontColor=default;labelBackgroundColor=default;endArrow=classic;dashed=1;" edge="1" parent="1" source="yzaYmvW_lgsB3hr20q7t-12" target="yzaYmvW_lgsB3hr20q7t-14">
          <mxGeometry relative="1" as="geometry" />
        </mxCell>
        <mxCell id="yzaYmvW_lgsB3hr20q7t-12" value="&lt;font face=&quot;Montserrat&quot;&gt;&lt;span style=&quot;font-size: 15px;&quot;&gt;D&lt;/span&gt;&lt;/font&gt;" style="ellipse;whiteSpace=wrap;html=1;aspect=fixed;" vertex="1" parent="1">
          <mxGeometry x="280" y="480" width="40" height="40" as="geometry" />
        </mxCell>
        <mxCell id="yzaYmvW_lgsB3hr20q7t-13" style="edgeStyle=none;shape=connector;rounded=0;orthogonalLoop=1;jettySize=auto;html=1;entryX=0;entryY=0.5;entryDx=0;entryDy=0;strokeColor=default;align=center;verticalAlign=middle;fontFamily=Helvetica;fontSize=11;fontColor=default;labelBackgroundColor=default;endArrow=classic;exitX=1;exitY=0.5;exitDx=0;exitDy=0;" edge="1" parent="1" source="yzaYmvW_lgsB3hr20q7t-14" target="yzaYmvW_lgsB3hr20q7t-16">
          <mxGeometry relative="1" as="geometry">
            <mxPoint x="320" y="420" as="sourcePoint" />
          </mxGeometry>
        </mxCell>
        <mxCell id="yzaYmvW_lgsB3hr20q7t-14" value="&lt;font face=&quot;Montserrat&quot;&gt;&lt;span style=&quot;font-size: 15px;&quot;&gt;E&lt;/span&gt;&lt;/font&gt;" style="ellipse;whiteSpace=wrap;html=1;aspect=fixed;" vertex="1" parent="1">
          <mxGeometry x="400" y="400" width="40" height="40" as="geometry" />
        </mxCell>
        <mxCell id="yzaYmvW_lgsB3hr20q7t-15" style="edgeStyle=none;shape=connector;rounded=0;orthogonalLoop=1;jettySize=auto;html=1;exitX=1;exitY=0.5;exitDx=0;exitDy=0;entryX=0;entryY=0.5;entryDx=0;entryDy=0;strokeColor=default;align=center;verticalAlign=middle;fontFamily=Helvetica;fontSize=11;fontColor=default;labelBackgroundColor=default;endArrow=classic;" edge="1" parent="1" source="yzaYmvW_lgsB3hr20q7t-16" target="yzaYmvW_lgsB3hr20q7t-18">
          <mxGeometry relative="1" as="geometry" />
        </mxCell>
        <mxCell id="yzaYmvW_lgsB3hr20q7t-16" value="&lt;font face=&quot;Montserrat&quot;&gt;&lt;span style=&quot;font-size: 15px;&quot;&gt;F&lt;/span&gt;&lt;/font&gt;" style="ellipse;whiteSpace=wrap;html=1;aspect=fixed;" vertex="1" parent="1">
          <mxGeometry x="520" y="320" width="40" height="40" as="geometry" />
        </mxCell>
        <mxCell id="yzaYmvW_lgsB3hr20q7t-17" style="edgeStyle=none;shape=connector;rounded=0;orthogonalLoop=1;jettySize=auto;html=1;exitX=1;exitY=0.5;exitDx=0;exitDy=0;entryX=0;entryY=0.5;entryDx=0;entryDy=0;strokeColor=default;align=center;verticalAlign=middle;fontFamily=Helvetica;fontSize=11;fontColor=default;labelBackgroundColor=default;endArrow=classic;" edge="1" parent="1" source="yzaYmvW_lgsB3hr20q7t-18" target="yzaYmvW_lgsB3hr20q7t-19">
          <mxGeometry relative="1" as="geometry" />
        </mxCell>
        <mxCell id="yzaYmvW_lgsB3hr20q7t-18" value="&lt;font face=&quot;Montserrat&quot;&gt;&lt;span style=&quot;font-size: 15px;&quot;&gt;G&lt;/span&gt;&lt;/font&gt;" style="ellipse;whiteSpace=wrap;html=1;aspect=fixed;" vertex="1" parent="1">
          <mxGeometry x="640" y="396" width="40" height="40" as="geometry" />
        </mxCell>
        <mxCell id="yzaYmvW_lgsB3hr20q7t-19" value="&lt;font face=&quot;Montserrat&quot;&gt;&lt;span style=&quot;font-size: 15px;&quot;&gt;H&lt;/span&gt;&lt;/font&gt;" style="ellipse;whiteSpace=wrap;html=1;aspect=fixed;" vertex="1" parent="1">
          <mxGeometry x="760" y="396" width="40" height="40" as="geometry" />
        </mxCell>
        <mxCell id="yzaYmvW_lgsB3hr20q7t-20" style="edgeStyle=none;shape=connector;rounded=0;orthogonalLoop=1;jettySize=auto;html=1;exitX=1;exitY=0.5;exitDx=0;exitDy=0;entryX=0;entryY=0.5;entryDx=0;entryDy=0;strokeColor=default;align=center;verticalAlign=middle;fontFamily=Helvetica;fontSize=11;fontColor=default;labelBackgroundColor=default;endArrow=classic;dashed=1;" edge="1" parent="1" source="yzaYmvW_lgsB3hr20q7t-7" target="yzaYmvW_lgsB3hr20q7t-9">
          <mxGeometry relative="1" as="geometry" />
        </mxCell>
        <mxCell id="yzaYmvW_lgsB3hr20q7t-21" value="6" style="edgeLabel;html=1;align=center;verticalAlign=middle;resizable=0;points=[];fontFamily=Helvetica;fontSize=15;fontColor=default;labelBackgroundColor=default;" vertex="1" connectable="0" parent="1">
          <mxGeometry x="174.99665940288696" y="388.0049134723667" as="geometry">
            <mxPoint x="4" y="20" as="offset" />
          </mxGeometry>
        </mxCell>
        <mxCell id="yzaYmvW_lgsB3hr20q7t-22" value="5" style="edgeLabel;html=1;align=center;verticalAlign=middle;resizable=0;points=[];fontFamily=Helvetica;fontSize=15;fontColor=default;labelBackgroundColor=none;" vertex="1" connectable="0" parent="1">
          <mxGeometry x="174.99665940288696" y="450.0049134723667" as="geometry">
            <mxPoint x="4" y="20" as="offset" />
          </mxGeometry>
        </mxCell>
        <mxCell id="yzaYmvW_lgsB3hr20q7t-23" value="7" style="edgeLabel;html=1;align=center;verticalAlign=middle;resizable=0;points=[];fontFamily=Helvetica;fontSize=15;fontColor=default;labelBackgroundColor=default;" vertex="1" connectable="0" parent="1">
          <mxGeometry x="259.99665940288696" y="379.6949134723667" as="geometry">
            <mxPoint x="114" y="-54" as="offset" />
          </mxGeometry>
        </mxCell>
        <mxCell id="yzaYmvW_lgsB3hr20q7t-24" value="6" style="edgeLabel;html=1;align=center;verticalAlign=middle;resizable=0;points=[];fontFamily=Helvetica;fontSize=15;fontColor=default;labelBackgroundColor=none;" vertex="1" connectable="0" parent="1">
          <mxGeometry x="349.99665940288696" y="436.0049134723667" as="geometry">
            <mxPoint x="114" y="-54" as="offset" />
          </mxGeometry>
        </mxCell>
        <mxCell id="yzaYmvW_lgsB3hr20q7t-25" value="10" style="edgeLabel;html=1;align=center;verticalAlign=middle;resizable=0;points=[];fontFamily=Helvetica;fontSize=15;fontColor=default;labelBackgroundColor=default;" vertex="1" connectable="0" parent="1">
          <mxGeometry x="499.99665940288696" y="420.0049134723667" as="geometry">
            <mxPoint x="114" y="-54" as="offset" />
          </mxGeometry>
        </mxCell>
        <mxCell id="yzaYmvW_lgsB3hr20q7t-26" value="4" style="edgeLabel;html=1;align=center;verticalAlign=middle;resizable=0;points=[];fontFamily=Helvetica;fontSize=15;fontColor=default;labelBackgroundColor=none;" vertex="1" connectable="0" parent="1">
          <mxGeometry x="599.996659402887" y="460.0049134723667" as="geometry">
            <mxPoint x="114" y="-54" as="offset" />
          </mxGeometry>
        </mxCell>
        <mxCell id="yzaYmvW_lgsB3hr20q7t-27" value="11" style="edgeLabel;html=1;align=center;verticalAlign=middle;resizable=0;points=[];fontFamily=Helvetica;fontSize=15;fontColor=default;labelBackgroundColor=none;" vertex="1" connectable="0" parent="1">
          <mxGeometry x="369.99665940288696" y="521.0049134723668" as="geometry">
            <mxPoint x="114" y="-54" as="offset" />
          </mxGeometry>
        </mxCell>
      </root>
    </mxGraphModel>
  </diagram>
</mxfile>
